<svg width="38" height="30" viewBox="0 0 38 30" fill="none" xmlns="http://www.w3.org/2000/svg">
<g filter="url(#filter0_d_211_25)">
<path d="M4.11991 3.92059C4.04944 1.88088 5.62597 0 7.75693 0H29.5927C31.7237 0 33.3002 1.88088 33.2297 3.92059C33.162 5.87993 33.2499 8.41802 33.8836 10.4875C34.5193 12.5634 35.5913 13.8755 37.3469 14.0441V15.9559C35.5913 16.1245 34.5193 17.4366 33.8836 19.5125C33.2499 21.582 33.162 24.1201 33.2297 26.0795C33.3002 28.1191 31.7237 30 29.5927 30H7.75693C5.62597 30 4.04944 28.1191 4.11998 26.0795C4.1876 24.1201 4.0997 21.582 3.46597 19.5125C2.83034 17.4366 1.75574 16.1245 0 15.9559V14.0441C1.75567 13.8755 2.83034 12.5634 3.46597 10.4875C4.0997 8.41802 4.1876 5.87993 4.11991 3.92059Z" fill="url(#paint0_linear_211_25)"/>
<path d="M19.4834 22.9748C22.9334 22.9748 25.0123 21.272 25.0123 18.4634C25.0123 16.3404 23.5289 14.8034 21.3263 14.5601V14.4716C22.9446 14.2062 24.2145 12.6914 24.2145 10.9996C24.2145 8.58912 22.3265 7.0189 19.4497 7.0189H12.9767V22.9748H19.4834ZM15.4939 9.04243H18.8428C20.6634 9.04243 21.6972 9.86066 21.6972 11.3424C21.6972 12.9236 20.4948 13.8082 18.3147 13.8082H15.4939V9.04243ZM15.4939 20.9513V15.699H18.8203C21.2027 15.699 22.4389 16.5836 22.4389 18.3086C22.4389 20.0335 21.2365 20.9513 18.9664 20.9513H15.4939Z" fill="url(#paint1_linear_211_25)"/>
<path d="M4.11991 3.92059C4.04944 1.88088 5.62597 0 7.75693 0H29.5927C31.7237 0 33.3002 1.88088 33.2297 3.92059C33.162 5.87993 33.2499 8.41802 33.8836 10.4875C34.5193 12.5634 35.5913 13.8755 37.3469 14.0441V15.9559C35.5913 16.1245 34.5193 17.4366 33.8836 19.5125C33.2499 21.582 33.162 24.1201 33.2297 26.0795C33.3002 28.1191 31.7237 30 29.5927 30H7.75693C5.62597 30 4.04944 28.1191 4.11998 26.0795C4.1876 24.1201 4.0997 21.582 3.46597 19.5125C2.83034 17.4366 1.75574 16.1245 0 15.9559V14.0441C1.75567 13.8755 2.83034 12.5634 3.46597 10.4875C4.0997 8.41802 4.1876 5.87993 4.11991 3.92059Z" stroke="white"/>
<path d="M19.4834 22.9748C22.9334 22.9748 25.0123 21.272 25.0123 18.4634C25.0123 16.3404 23.5289 14.8034 21.3263 14.5601V14.4716C22.9446 14.2062 24.2145 12.6914 24.2145 10.9996C24.2145 8.58912 22.3265 7.0189 19.4497 7.0189H12.9767V22.9748H19.4834ZM15.4939 9.04243H18.8428C20.6634 9.04243 21.6972 9.86066 21.6972 11.3424C21.6972 12.9236 20.4948 13.8082 18.3147 13.8082H15.4939V9.04243ZM15.4939 20.9513V15.699H18.8203C21.2027 15.699 22.4389 16.5836 22.4389 18.3086C22.4389 20.0335 21.2365 20.9513 18.9664 20.9513H15.4939Z" stroke="white"/>
</g>
<defs>
<filter id="filter0_d_211_25" x="-16.5" y="-12.5" width="70.3467" height="63" filterUnits="userSpaceOnUse" color-interpolation-filters="sRGB">
<feFlood flood-opacity="0" result="BackgroundImageFix"/>
<feColorMatrix in="SourceAlpha" type="matrix" values="0 0 0 0 0 0 0 0 0 0 0 0 0 0 0 0 0 0 127 0" result="hardAlpha"/>
<feOffset dy="4"/>
<feGaussianBlur stdDeviation="8"/>
<feColorMatrix type="matrix" values="0 0 0 0 0 0 0 0 0 0 0 0 0 0 0 0 0 0 0.15 0"/>
<feBlend mode="normal" in2="BackgroundImageFix" result="effect1_dropShadow_211_25"/>
<feBlend mode="normal" in="SourceGraphic" in2="effect1_dropShadow_211_25" result="shape"/>
</filter>
<linearGradient id="paint0_linear_211_25" x1="5.54945" y1="0.793971" x2="38.3859" y2="26.6518" gradientUnits="userSpaceOnUse">
<stop stop-color="#9013FE"/>
<stop offset="1" stop-color="#6610F2"/>
</linearGradient>
<linearGradient id="paint1_linear_211_25" x1="14.115" y1="8.06914" x2="21.4966" y2="20.4535" gradientUnits="userSpaceOnUse">
<stop stop-color="white"/>
<stop offset="1" stop-color="#F1E5FC"/>
</linearGradient>
</defs>
</svg>
