<svg width="34" height="24" viewBox="0 0 34 24" fill="none" xmlns="http://www.w3.org/2000/svg">
<path d="M20.9991 16.7957C22.0347 18.4826 23.382 19.7225 25.7649 19.7225C27.7667 19.7225 29.0455 18.7244 29.0455 17.3452C29.0455 15.6925 27.7316 15.1072 25.5283 14.1457L24.3205 13.6287C20.8342 12.147 18.5182 10.2907 18.5182 6.36657C18.5182 2.75179 21.279 0 25.5935 0C28.6652 0 30.8735 1.06652 32.4648 3.85902L28.7028 6.26887C27.8745 4.78714 26.9809 4.2034 25.5935 4.2034C24.1785 4.2034 23.2816 5.09895 23.2816 6.26887C23.2816 7.71478 24.1793 8.30015 26.2521 9.1957L27.4599 9.71186C31.5647 11.468 33.8824 13.2583 33.8824 17.2834C33.8824 21.6227 30.4655 24 25.8767 24C21.39 24 18.4913 21.867 17.073 19.0712L20.9991 16.7957ZM3.93264 17.2133C4.69158 18.5567 5.38197 19.6924 7.04186 19.6924C8.62911 19.6924 9.63043 19.0728 9.63043 16.6638V0.275177H14.4616V16.7289C14.4616 21.7196 11.5286 23.991 7.24751 23.991C3.37934 23.991 1.13923 21.994 0 19.5886L3.93264 17.2133Z" fill="black"/>
</svg>
