<svg width="39" height="27" viewBox="0 0 39 27" fill="none" xmlns="http://www.w3.org/2000/svg">
<path d="M21.8793 26.5H36.3773C36.8378 26.5 37.2902 26.3799 37.6889 26.1517C38.0877 25.9235 38.4189 25.5952 38.649 25.2C38.8791 24.8046 39.0002 24.3563 39 23.8999C38.9998 23.4435 38.8784 22.9952 38.6478 22.6001L28.9114 5.88586C28.6813 5.49066 28.3503 5.16245 27.9516 4.93426C27.5529 4.70611 27.1006 4.58594 26.6402 4.58594C26.1798 4.58594 25.7275 4.70611 25.3288 4.93426C24.9301 5.16245 24.599 5.49066 24.3689 5.88586L21.8793 10.1624L17.0118 1.7997C16.7815 1.40454 16.4503 1.07638 16.0515 0.848226C15.6527 0.62012 15.2003 0.5 14.7399 0.5C14.2794 0.5 13.8271 0.62012 13.4283 0.848226C13.0294 1.07638 12.6982 1.40454 12.4679 1.7997L0.352148 22.6001C0.121655 22.9952 0.000200605 23.4435 2.48291e-07 23.8999C-0.000200109 24.3563 0.120861 24.8046 0.351007 25.2C0.581152 25.5952 0.912266 25.9235 1.31105 26.1517C1.70983 26.3799 2.16222 26.5 2.62271 26.5H11.7233C15.3291 26.5 17.9882 24.9303 19.8179 21.8677L24.2601 14.2429L26.6395 10.1624L33.7804 22.4195H24.2601L21.8793 26.5ZM11.5749 22.4153L5.22388 22.4138L14.7441 6.07206L19.4944 14.2429L16.3139 19.7042C15.0988 21.6913 13.7183 22.4153 11.5749 22.4153Z" fill="#00DC82"/>
</svg>
