<svg width="40" height="24" viewBox="0 0 40 24" fill="none" xmlns="http://www.w3.org/2000/svg">
<path d="M19.5592 0.512967C12.7762 0.728553 10.7602 5.57397 10.2982 8.19897C10.9002 7.22595 12.7972 5.09101 15.5902 5.09101C18.8452 5.09101 21.3232 8.72401 22.8352 9.85801C24.6721 11.2357 28.3633 13.0548 33.2092 11.58C37.0732 10.404 38.8652 6.30195 39.2572 4.35597C37.3882 6.89697 34.5532 8.42321 31.0462 6.62397C28.6312 5.38497 26.8252 0.282009 19.5592 0.512967Z" fill="#07B6D5"/>
<path d="M9.96217 12.042C3.17917 12.2576 1.16317 17.103 0.701172 19.728C1.30317 18.755 3.20017 16.62 5.99317 16.62C9.24817 16.62 11.7262 20.253 13.2382 21.387C15.0751 22.7647 18.7663 24.5838 23.6122 23.109C27.4762 21.933 29.2682 17.831 29.6602 15.885C27.7912 18.426 24.9562 19.9522 21.4492 18.153C19.0342 16.914 17.2282 11.811 9.96217 12.042Z" fill="#07B6D5"/>
</svg>
