<svg width="37" height="24" viewBox="0 0 37 24" fill="none" xmlns="http://www.w3.org/2000/svg">
<path d="M0 2.42159V4.53538H6.88222V23.7281H11.7659V4.53538H18.6482V2.46049C18.6482 1.29337 18.6482 0.346701 18.5952 0.320765C18.5952 0.281861 14.3997 0.268894 9.30423 0.268894L0.0397055 0.307796V2.43456L0 2.42159ZM30.9303 0.255925C32.2802 0.567158 33.3126 1.16369 34.239 2.11036C34.7287 2.62908 35.4567 3.53684 35.5096 3.77027C35.5096 3.84807 33.2199 5.36533 31.8303 6.20826C31.7773 6.24716 31.5656 6.0267 31.3538 5.68953C30.6656 4.7299 29.9641 4.31492 28.8656 4.23711C27.2774 4.13337 26.2186 4.95036 26.2186 6.312C26.2186 6.72698 26.298 6.9604 26.4568 7.29757C26.8142 8.01081 27.4759 8.43876 29.5274 9.32059C33.3126 10.9157 34.9537 11.9661 35.9464 13.4704C37.0713 15.1562 37.3228 17.8017 36.5684 19.7858C35.7214 21.9515 33.6567 23.4168 30.7053 23.8967C29.7788 24.0523 27.6612 24.0263 26.6686 23.8578C24.551 23.4687 22.526 22.4313 21.2819 21.0956C20.7922 20.5768 19.8526 19.1893 19.9055 19.0985L20.4084 18.7873L22.3937 17.659L23.8892 16.8031L24.2333 17.257C24.6701 17.9314 25.6495 18.8391 26.2186 19.1504C27.9392 20.0192 30.2421 19.9025 31.3803 18.891C31.87 18.4501 32.0817 17.9832 32.0817 17.3348C32.0817 16.7383 31.9891 16.466 31.6847 16.0121C31.2612 15.4415 30.4141 14.9747 28.0318 13.9372C25.2922 12.796 24.1275 12.0698 23.0422 10.9546C22.4201 10.2802 21.851 9.22981 21.5863 8.36095C21.3878 7.6088 21.3216 5.76734 21.5069 5.02816C22.076 2.43456 24.0745 0.61903 26.9333 0.100309C27.8597 -0.0812439 30.0435 -0.00343569 30.9567 0.229989L30.9303 0.255925Z" fill="black"/>
</svg>
