<svg width="488" height="488" viewBox="0 0 488 488" fill="none" xmlns="http://www.w3.org/2000/svg">
<path d="M0.199989 243.5C0.299989 108.8 109.6 -0.2 244.3 1.31229e-07C379 0.2 488 109.5 487.8 244.1C487.6 378.7 378.5 487.6 244 487.6C109.3 487.5 0.0999893 378.3 0.199989 243.5ZM239 327C220.1 327.6 201.2 325.9 182.7 322C169 319.2 157.6 310 151.9 297.2C146.4 284.5 143.7 264.9 143.9 238.4C144 224.6 144.9 210.7 146.5 197C148.1 183.6 149.7 172.6 151.3 163.9L153 155.3C153 155 153 154.8 153 154.5C153 152.1 151.3 150 148.9 149.6L117.4 144.7H116.7C114.4 144.7 112.4 146.3 111.9 148.5C111.4 150.5 111 152 110.1 156.8C108.3 166.1 106.6 175.1 104.8 188.3C102.9 202.6 101.7 217 101.3 231.4C100.6 241.5 100.6 251.5 101.3 261.6C102 288.3 106.6 309.6 115 325.5C123.4 341.5 137.7 352.9 157.8 359.9C177.9 366.9 205.9 370.3 241.8 370.2H246.3C282.2 370.3 310.2 366.9 330.3 359.9C350.4 352.9 364.6 341.4 373.1 325.5C381.5 309.5 386.1 288.2 386.9 261.6C387.6 251.5 387.6 241.5 386.9 231.4C386.5 217 385.3 202.6 383.4 188.3C381.6 175.3 379.9 166.3 378.1 156.8C377.1 152 376.8 150.5 376.3 148.5C375.8 146.3 373.8 144.7 371.5 144.7H370.7L339.2 149.6C336.8 150 335.1 152.1 335.1 154.5C335.1 154.8 335.1 155 335.1 155.3L336.8 163.9C338.4 172.6 340 183.6 341.6 197C343.2 210.8 344.1 224.6 344.2 238.4C344.5 264.9 341.8 284.4 336.2 297.2C330.6 309.9 319.2 319.2 305.6 322C287.1 325.9 268.2 327.6 249.3 327.1L239 327Z" fill="#3544B1"/>
</svg>
